<?xml version="1.0" encoding="UTF-8" standalone="no"?><!DOCTYPE svg PUBLIC "-//W3C//DTD SVG 1.1//EN" "http://www.w3.org/Graphics/SVG/1.1/DTD/svg11.dtd"><svg width="100%" height="100%" viewBox="0 0 100 100" version="1.1" xmlns="http://www.w3.org/2000/svg" xmlns:xlink="http://www.w3.org/1999/xlink" xml:space="preserve" xmlns:serif="http://www.serif.com/" style="fill-rule:evenodd;clip-rule:evenodd;stroke-linejoin:round;stroke-miterlimit:2;"><g id="Layer-1" serif:id="Layer 1"><path id="voice" d="M50,12.5c-20.702,0 -37.485,16.777 -37.5,37.476l0,29.02c0.011,4.7 3.826,8.504 8.529,8.504l28.987,0c20.705,-0.008 37.484,-16.794 37.484,-37.5c0,-20.711 -16.789,-37.5 -37.5,-37.5Zm11.011,8.879c9.665,0 17.594,7.929 17.594,17.594c0,9.665 -7.929,17.594 -17.594,17.594l-9.294,0l0,9.335c0,9.665 -7.929,17.594 -17.594,17.594c-9.666,0 -17.595,-7.929 -17.595,-17.594c0,-9.665 7.929,-17.595 17.595,-17.595l9.293,0l0,-9.334c0,-9.665 7.93,-17.594 17.595,-17.594Zm0,8.235c-5.214,0 -9.359,4.145 -9.359,9.359l0,9.359l9.359,0c5.214,0 9.358,-4.145 9.358,-9.359c0,-5.214 -4.144,-9.359 -9.358,-9.359Zm-26.888,26.929c-5.214,0 -9.359,4.145 -9.359,9.359c0,5.214 4.145,9.358 9.359,9.358c5.214,0 9.358,-4.144 9.358,-9.358l0,-9.359l-9.358,0Z" style="fill:#767676;fill-rule:nonzero;"/></g></svg>