<?xml version="1.0" encoding="UTF-8" standalone="no"?>
<!-- Created with Inkscape (http://www.inkscape.org/) -->

<svg
   xmlns:osb="http://www.openswatchbook.org/uri/2009/osb"
   xmlns:dc="http://purl.org/dc/elements/1.1/"
   xmlns:cc="http://creativecommons.org/ns#"
   xmlns:rdf="http://www.w3.org/1999/02/22-rdf-syntax-ns#"
   xmlns:svg="http://www.w3.org/2000/svg"
   xmlns="http://www.w3.org/2000/svg"
   xmlns:sodipodi="http://sodipodi.sourceforge.net/DTD/sodipodi-0.dtd"
   xmlns:inkscape="http://www.inkscape.org/namespaces/inkscape"
   width="24"
   height="24"
   viewBox="0 0 6.3499999 6.3500002"
   version="1.1"
   id="svg8"
   inkscape:version="0.92.4 5da689c313, 2019-01-14"
   sodipodi:docname="fedora.svg">
  <defs
     id="defs2">
    <linearGradient
       osb:paint="solid"
       id="selected_bg_color">
      <stop
         id="stop4140"
         offset="0"
         style="stop-color:#5294e2;stop-opacity:1;" />
    </linearGradient>
  </defs>
  <sodipodi:namedview
     id="base"
     pagecolor="#ffffff"
     bordercolor="#666666"
     borderopacity="1.0"
     inkscape:pageopacity="0.0"
     inkscape:pageshadow="2"
     inkscape:zoom="22.4"
     inkscape:cx="15.054034"
     inkscape:cy="15.912572"
     inkscape:document-units="mm"
     inkscape:current-layer="layer1"
     showgrid="false"
     units="px"
     inkscape:window-width="1920"
     inkscape:window-height="954"
     inkscape:window-x="0"
     inkscape:window-y="28"
     inkscape:window-maximized="1" />
  <metadata
     id="metadata5">
    <rdf:RDF>
      <cc:Work
         rdf:about="">
        <dc:format>image/svg+xml</dc:format>
        <dc:type
           rdf:resource="http://purl.org/dc/dcmitype/StillImage" />
        <dc:title></dc:title>
      </cc:Work>
    </rdf:RDF>
  </metadata>
  <g
     inkscape:label="Layer 1"
     inkscape:groupmode="layer"
     id="layer1"
     transform="translate(0,-290.64998)">
    <path
       style="fill:#dedede;stroke-width:0.01788744"
       d="m 3.175,291.44373 c -1.3145702,0 -2.3803173,1.06532 -2.38125,2.3797 v 1.84278 c 7.075e-4,0.29844 0.2429414,0.54002 0.541569,0.54002 h 1.8407145 c 1.3147225,-5.1e-4 2.3802165,-1.06643 2.3802165,-2.38125 0,-1.31517 -1.0660886,-2.38125 -2.38125,-2.38125 z m 0.6991821,0.56379 c 0.6137428,0 1.1172444,0.5035 1.1172444,1.11724 0,0.61374 -0.5035016,1.11725 -1.1172444,1.11725 H 3.2840372 v 0.59273 c 0,0.61374 -0.5035018,1.11724 -1.1172444,1.11724 -0.6137427,0 -1.1172444,-0.5035 -1.1172444,-1.11724 0,-0.61374 0.5035016,-1.11725 1.1172444,-1.11725 h 0.5901449 v -0.59273 c 0,-0.61374 0.5035018,-1.11724 1.1172444,-1.11724 z m 0,0.52297 c -0.3310827,0 -0.594279,0.26319 -0.594279,0.59427 v 0.59428 h 0.594279 c 0.3310826,0 0.594279,-0.2632 0.594279,-0.59428 0,-0.33108 -0.2631961,-0.59427 -0.594279,-0.59427 z m -1.7073893,1.70997 c -0.3310828,0 -0.5942789,0.2632 -0.5942789,0.59428 0,0.33108 0.263196,0.59428 0.5942789,0.59428 0.3310827,0 0.594279,-0.2632 0.594279,-0.59428 v -0.59428 z"
       id="voice"
       inkscape:connector-curvature="0" />
  </g>
</svg>
